<svg width="29" height="29" viewBox="0 0 29 29" fill="none" xmlns="http://www.w3.org/2000/svg">
<g clip-path="url(#clip0_560_433)">
<path d="M22.9583 24.1671H6.04167C4.43991 24.1652 2.9043 23.528 1.77168 22.3954C0.639066 21.2628 0.00191866 19.7272 0 18.1254L0 10.8754C0.00191866 9.27365 0.639066 7.73804 1.77168 6.60542C2.9043 5.47281 4.43991 4.83566 6.04167 4.83374H22.9583C24.5601 4.83566 26.0957 5.47281 27.2283 6.60542C28.3609 7.73804 28.9981 9.27365 29 10.8754V18.1254C28.9981 19.7272 28.3609 21.2628 27.2283 22.3954C26.0957 23.528 24.5601 24.1652 22.9583 24.1671ZM6.04167 7.25041C5.08026 7.25041 4.15822 7.63233 3.4784 8.31215C2.79859 8.99196 2.41667 9.914 2.41667 10.8754V18.1254C2.41667 19.0868 2.79859 20.0089 3.4784 20.6887C4.15822 21.3685 5.08026 21.7504 6.04167 21.7504H22.9583C23.9197 21.7504 24.8418 21.3685 25.5216 20.6887C26.2014 20.0089 26.5833 19.0868 26.5833 18.1254V10.8754C26.5833 9.914 26.2014 8.99196 25.5216 8.31215C24.8418 7.63233 23.9197 7.25041 22.9583 7.25041H6.04167ZM14.5 19.3337C13.5441 19.3337 12.6096 19.0503 11.8147 18.5192C11.0199 17.9881 10.4004 17.2332 10.0346 16.35C9.66876 15.4669 9.57304 14.495 9.75954 13.5575C9.94603 12.6199 10.4064 11.7587 11.0823 11.0827C11.7583 10.4068 12.6195 9.94644 13.5571 9.75994C14.4946 9.57345 15.4665 9.66917 16.3496 10.035C17.2328 10.4008 17.9877 11.0203 18.5188 11.8152C19.0499 12.61 19.3333 13.5445 19.3333 14.5004C19.3333 15.7823 18.8241 17.0117 17.9177 17.9181C17.0113 18.8245 15.7819 19.3337 14.5 19.3337ZM14.5 12.0837C14.022 12.0837 13.5548 12.2255 13.1574 12.491C12.76 12.7566 12.4502 13.134 12.2673 13.5756C12.0844 14.0172 12.0365 14.5031 12.1298 14.9719C12.223 15.4407 12.4532 15.8713 12.7912 16.2092C13.1291 16.5472 13.5597 16.7774 14.0285 16.8706C14.4973 16.9639 14.9832 16.916 15.4248 16.7331C15.8664 16.5502 16.2438 16.2405 16.5094 15.843C16.7749 15.4456 16.9167 14.9784 16.9167 14.5004C16.9167 13.8595 16.6621 13.2448 16.2088 12.7916C15.7556 12.3384 15.1409 12.0837 14.5 12.0837ZM6.04167 9.66707C5.80268 9.66707 5.56906 9.73794 5.37035 9.87071C5.17164 10.0035 5.01677 10.1922 4.92531 10.413C4.83386 10.6338 4.80993 10.8767 4.85655 11.1111C4.90317 11.3455 5.01826 11.5608 5.18725 11.7298C5.35623 11.8988 5.57154 12.0139 5.80593 12.0605C6.04033 12.1071 6.28328 12.0832 6.50408 11.9918C6.72487 11.9003 6.91359 11.7454 7.04636 11.5467C7.17913 11.348 7.25 11.1144 7.25 10.8754C7.25 10.5549 7.12269 10.2476 6.89609 10.021C6.66948 9.79438 6.36214 9.66707 6.04167 9.66707ZM21.75 10.8754C21.75 11.1144 21.8209 11.348 21.9536 11.5467C22.0864 11.7454 22.2751 11.9003 22.4959 11.9918C22.7167 12.0832 22.9597 12.1071 23.1941 12.0605C23.4285 12.0139 23.6438 11.8988 23.8128 11.7298C23.9817 11.5608 24.0968 11.3455 24.1434 11.1111C24.1901 10.8767 24.1661 10.6338 24.0747 10.413C23.9832 10.1922 23.8284 10.0035 23.6296 9.87071C23.4309 9.73794 23.1973 9.66707 22.9583 9.66707C22.6379 9.66707 22.3305 9.79438 22.1039 10.021C21.8773 10.2476 21.75 10.5549 21.75 10.8754ZM6.04167 16.9171C5.80268 16.9171 5.56906 16.9879 5.37035 17.1207C5.17164 17.2535 5.01677 17.4422 4.92531 17.663C4.83386 17.8838 4.80993 18.1267 4.85655 18.3611C4.90317 18.5955 5.01826 18.8108 5.18725 18.9798C5.35623 19.1488 5.57154 19.2639 5.80593 19.3105C6.04033 19.3571 6.28328 19.3332 6.50408 19.2418C6.72487 19.1503 6.91359 18.9954 7.04636 18.7967C7.17913 18.598 7.25 18.3644 7.25 18.1254C7.25 17.8049 7.12269 17.4976 6.89609 17.271C6.66948 17.0444 6.36214 16.9171 6.04167 16.9171ZM21.75 18.1254C21.75 18.3644 21.8209 18.598 21.9536 18.7967C22.0864 18.9954 22.2751 19.1503 22.4959 19.2418C22.7167 19.3332 22.9597 19.3571 23.1941 19.3105C23.4285 19.2639 23.6438 19.1488 23.8128 18.9798C23.9817 18.8108 24.0968 18.5955 24.1434 18.3611C24.1901 18.1267 24.1661 17.8838 24.0747 17.663C23.9832 17.4422 23.8284 17.2535 23.6296 17.1207C23.4309 16.9879 23.1973 16.9171 22.9583 16.9171C22.6379 16.9171 22.3305 17.0444 22.1039 17.271C21.8773 17.4976 21.75 17.8049 21.75 18.1254Z" fill="#3A3A3A"/>
</g>
<defs>
<clipPath id="clip0_560_433">
<rect width="29" height="29" fill="white"/>
</clipPath>
</defs>
</svg>
