<svg width="21" height="21" viewBox="0 0 21 21" fill="none" xmlns="http://www.w3.org/2000/svg">
<g clip-path="url(#clip0_622_869)">
<path d="M20.7434 19.507L15.5206 14.2842C16.9439 12.5434 17.6436 10.3222 17.4752 8.08003C17.3067 5.83782 16.2829 3.74613 14.6154 2.23762C12.948 0.72911 10.7646 -0.0808056 8.51675 -0.0246027C6.26891 0.0316001 4.12867 0.949622 2.53872 2.53958C0.948767 4.12953 0.0307456 6.26977 -0.0254572 8.5176C-0.0816601 10.7654 0.728256 12.9489 2.23677 14.6163C3.74527 16.2837 5.83696 17.3076 8.07918 17.476C10.3214 17.6445 12.5426 16.9447 14.2833 15.5214L19.5062 20.7443C19.6712 20.9037 19.8922 20.9919 20.1217 20.9899C20.3511 20.9879 20.5705 20.8959 20.7328 20.7336C20.895 20.5714 20.987 20.3519 20.989 20.1225C20.991 19.8931 20.9028 19.6721 20.7434 19.507ZM8.74981 15.7507C7.36534 15.7507 6.01196 15.3401 4.86082 14.571C3.70967 13.8018 2.81247 12.7085 2.28265 11.4294C1.75284 10.1504 1.61422 8.7429 1.88431 7.38503C2.15441 6.02716 2.82109 4.77988 3.80006 3.80092C4.77903 2.82195 6.02631 2.15526 7.38418 1.88517C8.74205 1.61507 10.1495 1.75369 11.4286 2.28351C12.7077 2.81332 13.8009 3.71053 14.5701 4.86167C15.3393 6.01282 15.7498 7.3662 15.7498 8.75066C15.7477 10.6065 15.0096 12.3858 13.6973 13.6981C12.385 15.0104 10.6057 15.7486 8.74981 15.7507Z" fill="#F6F6F5"/>
</g>
<defs>
<clipPath id="clip0_622_869">
<rect width="21" height="21" fill="white"/>
</clipPath>
</defs>
</svg>
