<svg width="61" height="61" viewBox="0 0 61 61" fill="none" xmlns="http://www.w3.org/2000/svg">
<circle cx="30.5" cy="30.5" r="30.5" fill="#FF6900"/>
<path d="M48.831 26.4167H42.0792L33.4083 9.19113C32.8812 8.2252 32.1036 7.41911 31.1573 6.85757C30.211 6.29604 29.1309 5.9998 28.0305 6.00001H27.6589C26.8257 5.99885 26.0036 6.19164 25.2577 6.56312C24.5119 6.93459 23.8627 7.47456 23.3615 8.14028C22.8604 8.80601 22.5211 9.57923 22.3704 10.3988C22.2198 11.2183 22.2619 12.0616 22.4935 12.862L26.4299 26.4167H21.5625C20.7576 26.4188 19.9603 26.2613 19.2166 25.9532C18.473 25.6452 17.7978 25.1927 17.2301 24.6221L14.3371 21.7208C13.5976 20.9821 12.6421 20.4982 11.609 20.3393C10.576 20.1803 9.51914 20.3546 8.59182 20.8368C8.01803 21.1328 7.51085 21.5431 7.10145 22.0424C6.69206 22.5416 6.38912 23.1194 6.21124 23.7401C6.01451 24.406 5.95433 25.1048 6.03432 25.7945C6.11431 26.4843 6.33282 27.1507 6.67674 27.754L9.97199 33.5217C10.8666 35.0827 12.1569 36.3803 13.7129 37.2836C15.269 38.1869 17.0357 38.664 18.8349 38.6667H26.4115L23.006 47.746C22.7011 48.558 22.5976 49.4319 22.7043 50.2927C22.811 51.1536 23.1247 51.9757 23.6187 52.6888C24.1126 53.4018 24.7719 53.9846 25.5403 54.3871C26.3086 54.7896 27.1631 54.9999 28.0305 55C29.1119 55.0057 30.1751 54.7224 31.1102 54.1793C32.0453 53.6362 32.8182 52.8531 33.3491 51.911L41.6117 38.6667H48.831C50.4555 38.6667 52.0134 38.0214 53.1621 36.8727C54.3107 35.724 54.956 34.1661 54.956 32.5417C54.956 30.9172 54.3107 29.3593 53.1621 28.2106C52.0134 27.062 50.4555 26.4167 48.831 26.4167ZM26.4237 11.7269C26.3683 11.5353 26.3583 11.3335 26.3942 11.1374C26.4302 10.9413 26.5113 10.7562 26.6311 10.5968C26.7509 10.4374 26.9061 10.3081 27.0845 10.2189C27.2629 10.1298 27.4595 10.0834 27.6589 10.0833H28.0305C28.3865 10.0803 28.737 10.1714 29.0464 10.3474C29.3559 10.5235 29.6132 10.7782 29.7925 11.0858L37.51 26.4167H30.6806L26.4237 11.7269ZM48.831 34.5833H40.4786C40.1321 34.5836 39.7914 34.6719 39.4885 34.8402C39.1856 35.0084 38.9305 35.2509 38.7472 35.545L29.8231 49.853C29.6474 50.1749 29.3882 50.4436 29.0728 50.6308C28.7574 50.818 28.3973 50.9167 28.0305 50.9167C27.823 50.9169 27.6185 50.8667 27.4346 50.7704C27.2508 50.6741 27.093 50.5346 26.975 50.3639C26.8569 50.1933 26.782 49.9965 26.7568 49.7905C26.7315 49.5845 26.7567 49.3754 26.83 49.1813L31.2686 37.3396C31.384 37.0307 31.4229 36.6985 31.3819 36.3713C31.341 36.0441 31.2213 35.7318 31.0333 35.4609C30.8453 35.19 30.5945 34.9687 30.3023 34.8159C30.0101 34.663 29.6853 34.5833 29.3556 34.5833H18.8349C17.7566 34.5816 16.698 34.2952 15.7659 33.7531C14.8338 33.2111 14.0613 32.4326 13.5265 31.4963L10.2211 25.7266C10.1519 25.6036 10.1078 25.468 10.0913 25.3279C10.0749 25.1877 10.0863 25.0456 10.1251 24.9099C10.1456 24.8195 10.1849 24.7344 10.2405 24.6601C10.296 24.5859 10.3667 24.5242 10.4477 24.4791C10.5735 24.4123 10.7136 24.3766 10.856 24.375C11.0752 24.3765 11.2852 24.4629 11.442 24.6159L14.335 27.509C15.2821 28.4607 16.4085 29.2152 17.6491 29.7286C18.8897 30.242 20.2199 30.5042 21.5625 30.5H48.831C49.3725 30.5 49.8918 30.7151 50.2747 31.098C50.6576 31.4809 50.8727 32.0002 50.8727 32.5417C50.8727 33.0832 50.6576 33.6025 50.2747 33.9854C49.8918 34.3682 49.3725 34.5833 48.831 34.5833Z" fill="#F5F5F5"/>
</svg>
