<svg width="24" height="24" viewBox="0 0 24 24" fill="none" xmlns="http://www.w3.org/2000/svg">
<g clip-path="url(#clip0_560_477)">
<path d="M12 23.994L4.93698 17.085C3.99347 16.1602 3.24258 15.0575 2.72768 13.8408C2.21279 12.6241 1.9441 11.3174 1.93715 9.99624C1.9302 8.67507 2.18511 7.36562 2.68717 6.14355C3.18923 4.92147 3.92847 3.811 4.86219 2.87629C5.79592 1.94157 6.90561 1.20115 8.12715 0.697797C9.34869 0.194444 10.6579 -0.0618608 11.979 -0.0563082C13.3002 -0.0507555 14.6072 0.216544 15.8245 0.730147C17.0417 1.24375 18.1451 1.99347 19.071 2.936C20.9436 4.81279 21.9953 7.35576 21.9953 10.007C21.9953 12.6582 20.9436 15.2012 19.071 17.078L12 23.994ZM12 2.006C10.4175 2.00575 8.87046 2.47484 7.5546 3.35393C6.23874 4.23303 5.21316 5.48264 4.60759 6.94469C4.00203 8.40674 3.84368 10.0155 4.15258 11.5676C4.46149 13.1197 5.22376 14.5452 6.34298 15.664L12 21.2L17.665 15.66C18.7833 14.5405 19.5445 13.1146 19.8524 11.5625C20.1603 10.0103 20.0009 8.40178 19.3945 6.94023C18.7881 5.47867 17.7619 4.22977 16.4457 3.35148C15.1295 2.47319 13.5823 2.00496 12 2.006ZM12 16C10.8133 16 9.65326 15.6481 8.66656 14.9888C7.67987 14.3295 6.91083 13.3925 6.45671 12.2961C6.00258 11.1997 5.88376 9.99335 6.11527 8.82946C6.34678 7.66558 6.91823 6.59648 7.75734 5.75736C8.59646 4.91825 9.66556 4.3468 10.8294 4.11529C11.9933 3.88378 13.1997 4.0026 14.2961 4.45673C15.3924 4.91085 16.3295 5.67989 16.9888 6.66658C17.6481 7.65328 18 8.81332 18 10C17.9984 11.5908 17.3657 13.116 16.2409 14.2409C15.116 15.3658 13.5908 15.9984 12 16ZM12 6C11.2089 6 10.4355 6.2346 9.7777 6.67413C9.11991 7.11365 8.60721 7.73837 8.30446 8.46927C8.00171 9.20017 7.9225 10.0044 8.07684 10.7804C8.23118 11.5563 8.61215 12.269 9.17156 12.8284C9.73097 13.3878 10.4437 13.7688 11.2196 13.9231C11.9955 14.0775 12.7998 13.9983 13.5307 13.6955C14.2616 13.3928 14.8863 12.8801 15.3259 12.2223C15.7654 11.5645 16 10.7911 16 10C16 8.93914 15.5786 7.92172 14.8284 7.17158C14.0783 6.42143 13.0608 6 12 6ZM14.207 10.793L13 9.586V7H11V10.414L12.793 12.207L14.207 10.793Z" fill="#3A3A3A"/>
</g>
<defs>
<clipPath id="clip0_560_477">
<rect width="24" height="24" fill="white"/>
</clipPath>
</defs>
</svg>
