<svg width="44" height="44" viewBox="0 0 44 44" fill="none" xmlns="http://www.w3.org/2000/svg">
<path d="M28.6667 28.6667C28.6667 36.0305 22.6971 42 15.3333 42C13.7156 42 12.1652 41.7119 10.7306 41.1842C10.4684 41.0878 10.1878 41.0477 9.91025 41.08L4.76718 41.6782C3.51554 41.8237 2.56129 40.5812 3.02485 39.4095L3.98274 36.9883C4.18604 36.4744 4.11503 35.8969 3.83469 35.4206C2.66875 33.4399 2 31.1314 2 28.6667C2 21.3029 7.96954 15.3333 15.3333 15.3333M28.6667 28.6667C21.3029 28.6667 15.3333 22.6971 15.3333 15.3333M28.6667 28.6667C30.2844 28.6667 31.8348 28.3786 33.2694 27.8509C33.5316 27.7544 33.8122 27.7144 34.0897 27.7467L39.2328 28.3448C40.4845 28.4904 41.4387 27.2479 40.9751 26.0762L40.0173 23.655C39.814 23.1411 39.885 22.5635 40.1653 22.0873C41.3313 20.1065 42 17.798 42 15.3333C42 7.96954 36.0305 2 28.6667 2C21.3029 2 15.3333 7.96954 15.3333 15.3333" stroke="#3A3A3A" stroke-width="2.5" stroke-linejoin="round"/>
</svg>
